  
<svg width="38" height="38" viewBox="0 0 38 38" fill="none" xmlns="http://www.w3.org/2000/svg">
<circle cx="19" cy="19" r="19" fill="#ffffff"/>
<path d="M23.2433 13.3431L13.3438 23.2426C12.9533 23.6332 12.9533 24.2663 13.3438 24.6568C13.7344 25.0474 14.3675 25.0474 14.758 24.6568L24.6575 14.7573C25.0481 14.3668 25.0481 13.7337 24.6575 13.3431C24.267 12.9526 23.6338 12.9526 23.2433 13.3431Z" fill="#1E1147"/>
<path d="M24.6574 23.2426L14.7579 13.3431C14.3674 12.9526 13.7342 12.9526 13.3437 13.3431C12.9532 13.7337 12.9532 14.3668 13.3437 14.7574L23.2432 24.6568C23.6337 25.0474 24.2669 25.0474 24.6574 24.6568C25.0479 24.2663 25.0479 23.6332 24.6574 23.2426Z" fill="#1E1147"/>
</svg>