<svg width="30" height="30" viewBox="0 0 30 30" fill="none" xmlns="http://www.w3.org/2000/svg">
<path d="M25.625 8.75H4.375C4.20924 8.75 4.05027 8.68415 3.93306 8.56694C3.81585 8.44973 3.75 8.29076 3.75 8.125V6.875C3.75 6.70924 3.81585 6.55027 3.93306 6.43306C4.05027 6.31585 4.20924 6.25 4.375 6.25H25.625C25.7908 6.25 25.9497 6.31585 26.0669 6.43306C26.1842 6.55027 26.25 6.70924 26.25 6.875V8.125C26.25 8.29076 26.1842 8.44973 26.0669 8.56694C25.9497 8.68415 25.7908 8.75 25.625 8.75ZM26.25 15.625V14.375C26.25 14.2092 26.1842 14.0503 26.0669 13.9331C25.9497 13.8158 25.7908 13.75 25.625 13.75H4.375C4.20924 13.75 4.05027 13.8158 3.93306 13.9331C3.81585 14.0503 3.75 14.2092 3.75 14.375V15.625C3.75 15.7908 3.81585 15.9497 3.93306 16.0669C4.05027 16.1842 4.20924 16.25 4.375 16.25H25.625C25.7908 16.25 25.9497 16.1842 26.0669 16.0669C26.1842 15.9497 26.25 15.7908 26.25 15.625ZM26.25 23.125V21.875C26.25 21.7092 26.1842 21.5503 26.0669 21.4331C25.9497 21.3158 25.7908 21.25 25.625 21.25H4.375C4.20924 21.25 4.05027 21.3158 3.93306 21.4331C3.81585 21.5503 3.75 21.7092 3.75 21.875V23.125C3.75 23.2908 3.81585 23.4497 3.93306 23.5669C4.05027 23.6842 4.20924 23.75 4.375 23.75H25.625C25.7908 23.75 25.9497 23.6842 26.0669 23.5669C26.1842 23.4497 26.25 23.2908 26.25 23.125Z" fill="#14af4b"/>
</svg>